HIERARCHY
ROOT SpineBase
{
  OFFSET 0.000000 0.000000 0.000000
  CHANNELS 6 Xposition Yposition Zposition Zrotation Xrotation Yrotation
  JOINT SpineMid
  {
    OFFSET 0.000000 32.778579 -0.000000
    CHANNELS 3 Zrotation Xrotation Yrotation
    JOINT SpineShoulder
    {
      OFFSET 1.096372 24.304348 -1.031054
      CHANNELS 3 Zrotation Xrotation Yrotation
      JOINT Neck
      {
        OFFSET 0.503853 7.994122 -0.812043
        CHANNELS 3 Zrotation Xrotation Yrotation
        JOINT Head
        {
          OFFSET 0.704873 11.398446 7.304111
          CHANNELS 3 Zrotation Xrotation Yrotation
          End Site
          {
            OFFSET 0 0 0
          }
        }
      }
      JOINT ShoulderLeft
      {
        OFFSET -14.629847 -8.795663 14.122773
        CHANNELS 3 Zrotation Xrotation Yrotation
        JOINT ElbowLeft
        {
          OFFSET 13.098821 -17.790766 -17.232173
          CHANNELS 3 Zrotation Xrotation Yrotation
          JOINT WristLeft
          {
            OFFSET 11.102838 -20.580534 -9.132587
            CHANNELS 3 Zrotation Xrotation Yrotation
            JOINT HandLeft
            {
              OFFSET 2.872017 -9.298150 -4.473178
              CHANNELS 3 Zrotation Xrotation Yrotation
              JOINT HandTipLeft
              {
                OFFSET 5.024771 -4.879912 -0.990524
                CHANNELS 3 Zrotation Xrotation Yrotation
                End Site
                {
                  OFFSET 0 0 0
                }
              }
              JOINT ThumbLeft
              {
                OFFSET -4.163974 1.571573 1.460304
                CHANNELS 3 Zrotation Xrotation Yrotation
                End Site
                {
                  OFFSET 0 0 0
                }
              }
            }
          }
        }
      }
      JOINT ShoulderRight
      {
        OFFSET 2.647170 -4.512884 -11.847655
        CHANNELS 3 Zrotation Xrotation Yrotation
        JOINT ElbowRight
        {
          OFFSET 6.061668 -25.351137 -6.449226
          CHANNELS 3 Zrotation Xrotation Yrotation
          JOINT WristRight
          {
            OFFSET -2.414369 -19.415453 -2.954098
            CHANNELS 3 Zrotation Xrotation Yrotation
            JOINT HandRight
            {
              OFFSET 3.488257 0.022089 2.050330
              CHANNELS 3 Zrotation Xrotation Yrotation
              JOINT HandTipRight
              {
                OFFSET 0.576545 -5.202612 0.622506
                CHANNELS 3 Zrotation Xrotation Yrotation
                End Site
                {
                  OFFSET 0 0 0
                }
              }
              JOINT ThumbRight
              {
                OFFSET -3.266436 0.526383 1.620479
                CHANNELS 3 Zrotation Xrotation Yrotation
                End Site
                {
                  OFFSET 0 0 0
                }
              }
            }
          }
        }
      }
    }
  }
  JOINT HipLeft
  {
    OFFSET -3.343547 0.210677 -0.208728
    CHANNELS 3 Zrotation Xrotation Yrotation
    JOINT KneeLeft
    {
      OFFSET 6.028145 -32.548005 -4.563978
      CHANNELS 3 Zrotation Xrotation Yrotation
      JOINT AnkleLeft
      {
        OFFSET -5.873533 -37.458401 4.773745
        CHANNELS 3 Zrotation Xrotation Yrotation
        JOINT FootLeft
        {
          OFFSET 2.943886 -5.822974 -0.417852
          CHANNELS 3 Zrotation Xrotation Yrotation
          End Site
          {
            OFFSET 0 0 0
          }
        }
      }
    }
  }
  JOINT HipRight
  {
    OFFSET 3.898566 2.099254 -7.023938
    CHANNELS 3 Zrotation Xrotation Yrotation
    JOINT KneeRight
    {
      OFFSET 0.688371 -31.280906 -0.778692
      CHANNELS 3 Zrotation Xrotation Yrotation
      JOINT AnkleRight
      {
        OFFSET 2.392202 -41.578066 0.467750
        CHANNELS 3 Zrotation Xrotation Yrotation
        JOINT FootRight
        {
          OFFSET -1.248901 -1.928912 6.169061
          CHANNELS 3 Zrotation Xrotation Yrotation
          End Site
          {
            OFFSET 0 0 0
          }
        }
      }
    }
  }
}
MOTION
Frames: 9
Frame Time: 0.033333
-14.881303 76.967727 252.818506 0.000000 -0.000000 43.260538 0.000000 0.000000 -43.260538 -0.000000 0.000000 0.000000 -0.000000 0.000000 0.000000 0.000000 0.000000 0.000000 -0.000000 0.000000 0.000000 -0.000000 0.000000 0.000000 -0.000000 0.000000 0.000000 -0.000000 0.000000 0.000000 0.000000 0.000000 0.000000 0.000000 0.000000 0.000000 -0.000000 0.000000 0.000000 -0.000000 0.000000 0.000000 -0.000000 0.000000 0.000000 -0.000000 0.000000 0.000000 0.000000 0.000000 0.000000 0.000000 0.000000 0.000000 0.000000 0.000000 -43.260538 -0.000000 0.000000 0.000000 -0.000000 0.000000 0.000000 0.000000 0.000000 0.000000 0.000000 0.000000 -43.260538 -0.000000 0.000000 0.000000 -0.000000 0.000000 0.000000 0.000000 0.000000 0.000000
-14.392073 77.013254 252.660969 0.284521 0.085650 43.089875 -0.266293 0.131821 -43.089781 -0.000000 0.000000 0.000000 -0.000000 0.000000 0.000000 0.000000 0.000000 0.000000 -0.000000 0.000000 0.000000 0.653611 -0.281096 -0.439210 2.155617 3.223408 -0.092486 -6.964768 -8.030141 -4.611000 0.000000 0.000000 0.000000 0.000000 0.000000 0.000000 -0.000000 0.000000 0.000000 -0.000000 0.000000 0.000000 2.595461 -1.630634 -4.257778 -2.710193 1.431764 4.328590 0.000000 0.000000 0.000000 0.000000 0.000000 0.000000 -0.998034 0.623436 -42.988862 0.870451 0.139360 -0.097154 -0.000000 0.000000 0.000000 0.000000 0.000000 0.000000 -1.186603 0.475388 -43.070640 0.906904 0.377520 -0.017252 -0.636691 8.355878 -9.600557 0.000000 0.000000 0.000000
-14.105436 77.058701 252.588438 0.366030 0.086946 42.842900 0.763920 -0.405735 -42.803464 -1.202257 -0.308099 -0.040315 -0.000000 0.000000 0.000000 0.000000 0.000000 0.000000 0.721975 0.397212 -0.406112 0.371404 -0.983405 -0.383212 4.134231 6.270766 -0.284096 -12.760103 -14.066288 -8.549323 0.000000 0.000000 0.000000 0.000000 0.000000 0.000000 -0.000000 0.000000 0.000000 -0.000000 0.000000 0.000000 4.414987 -2.958796 -7.665473 -4.597232 3.994100 8.095038 0.000000 0.000000 0.000000 0.000000 0.000000 0.000000 -1.455461 0.989708 -42.670771 1.374594 0.173057 -0.162388 -0.000000 0.000000 0.000000 0.000000 0.000000 0.000000 -2.225694 0.881794 -42.795672 1.866049 0.778566 -0.041981 -0.153776 14.705962 -16.955747 0.000000 0.000000 0.000000
-14.021391 77.104068 252.600914 0.244479 0.003846 42.521807 1.170463 -0.605228 -42.467703 -0.634170 0.056131 0.013177 -0.882425 -0.403408 -0.067262 0.000000 0.000000 0.000000 0.050226 0.082157 -0.603748 0.382834 -1.403134 -0.514431 5.818778 9.027811 -0.487586 -17.532533 -18.619515 -11.985212 0.000000 0.000000 0.000000 0.000000 0.000000 0.000000 -0.882425 -0.403408 -0.067262 -0.000000 0.000000 0.000000 5.662754 -3.996958 -10.478487 -5.873951 6.168498 11.275291 0.000000 0.000000 0.000000 0.000000 0.000000 0.000000 -1.369839 1.104695 -42.315879 1.512052 0.102518 -0.193904 0.492469 -0.716627 -0.393884 0.000000 0.000000 0.000000 -3.118476 1.217153 -42.441086 2.878005 1.203156 -0.075345 0.767357 19.294299 -22.467650 0.000000 0.000000 0.000000
-14.139939 77.149355 252.698395 -0.080459 -0.163807 42.125547 1.593364 -0.799662 -42.061208 -0.594256 0.155436 0.018159 -1.043891 -0.465214 -0.080878 0.000000 0.000000 0.000000 -0.001909 0.037582 -0.707450 0.280747 -1.774214 -0.611074 7.102846 11.402080 -0.609742 -21.339445 -21.971228 -14.998330 0.000000 0.000000 0.000000 0.000000 0.000000 0.000000 -1.043891 -0.465214 -0.080878 -0.000000 0.000000 0.000000 6.471367 -4.769183 -12.879062 -6.670094 8.498247 14.069509 0.000000 0.000000 0.000000 0.000000 0.000000 0.000000 -0.739547 0.979065 -41.924495 1.285411 -0.070703 -0.192170 0.335359 -0.988729 -0.520598 0.000000 0.000000 0.000000 -3.865139 1.480451 -42.009505 3.943236 1.651206 -0.118575 1.759429 22.550429 -26.515596 0.000000 0.000000 0.000000
-14.461080 77.194562 252.880883 -0.609349 -0.416249 41.650008 2.033397 -0.986942 -41.581782 -0.427710 0.295188 0.023423 -1.138625 -0.490598 -0.089524 0.000000 0.000000 0.000000 -0.088483 -0.041769 -0.762382 0.066859 -2.096366 -0.675977 7.897477 13.322598 -0.563520 -24.180644 -24.282921 -17.597790 0.000000 0.000000 0.000000 0.000000 0.000000 0.000000 -1.138625 -0.490598 -0.089524 -0.860292 -0.343298 0.170929 7.764354 -4.978337 -15.216232 -7.113640 10.799475 16.565108 0.000000 0.000000 0.000000 0.000000 0.000000 0.000000 0.731941 -0.093944 -41.651621 -0.000000 0.000000 0.000000 0.018385 -1.275432 -0.646411 0.000000 0.000000 0.000000 -4.464992 1.671557 -41.500885 5.062071 2.122504 -0.172966 2.647042 24.821680 -29.360031 0.000000 0.000000 0.000000
-15.181511 77.195772 253.234184 -1.582249 -0.865744 40.663603 2.622017 -1.170208 -40.606591 0.016424 0.531286 0.032663 -1.185803 -0.484725 -0.094820 0.000000 0.000000 0.000000 0.411244 0.718087 -0.742411 -0.642650 -2.881468 -0.650154 7.385021 14.379215 -0.004974 -25.043923 -25.405446 -19.454545 0.000000 0.000000 0.000000 0.000000 0.000000 0.000000 -0.929683 -1.471371 -0.392323 -1.414215 0.574934 0.545341 7.272938 -4.502326 -17.644189 -6.197857 12.765726 19.178021 0.000000 0.000000 0.000000 0.000000 0.000000 0.000000 2.738789 -0.164907 -40.602771 -0.603516 -0.793325 -0.066613 -0.587194 -1.737607 -0.848412 0.000000 0.000000 0.000000 -5.351638 1.902728 -40.467043 6.892977 2.886727 -0.281599 1.760804 23.862017 -32.266376 0.000000 0.000000 0.000000
-16.015267 77.222250 253.644489 -2.644953 -1.350787 39.933755 2.894889 -0.662644 -39.948196 1.150121 0.433654 0.085235 -1.150798 -0.431855 -0.093925 0.000000 0.000000 0.000000 0.075400 0.338153 -0.702281 -1.120715 -3.016318 -0.642717 5.881098 13.694501 0.947520 -23.762149 -24.457269 -20.371188 0.000000 0.000000 0.000000 0.000000 0.000000 0.000000 -1.153968 -1.956693 -0.459681 -1.363211 1.083416 0.656602 5.458463 -2.940875 -19.931753 -4.158209 12.783621 21.400453 0.000000 0.000000 0.000000 0.000000 0.000000 0.000000 5.380743 -0.941594 -39.949709 -2.084567 -1.382566 0.011164 -1.496256 -2.114403 -0.997203 0.000000 0.000000 0.000000 -5.930625 1.992732 -39.713888 8.490384 3.595052 -0.398583 2.620327 25.411173 -32.902227 0.000000 0.000000 0.000000
-16.861311 77.311227 254.041269 -3.683994 -1.800739 39.665471 3.984561 -0.966846 -39.689755 1.026154 0.341456 0.079730 -1.026646 -0.339973 -0.085833 0.000000 0.000000 0.000000 -0.915408 -0.946981 -0.642458 -1.289460 -2.616879 -0.683375 5.328902 14.495767 1.845894 -24.389349 -24.398762 -22.224598 0.000000 0.000000 0.000000 0.000000 0.000000 0.000000 -1.545987 -2.057897 -0.377665 -1.837822 1.067880 0.766825 7.458571 -3.757487 -21.884603 -5.822485 15.443670 23.628814 0.000000 0.000000 0.000000 0.000000 0.000000 0.000000 7.949400 -1.702406 -39.726630 -3.518288 -1.969462 0.068768 -2.335118 -2.482644 -1.151970 0.000000 0.000000 0.000000 -6.164280 1.940692 -39.455188 10.510976 4.594775 -0.534455 3.679312 27.522598 -28.416279 0.000000 0.000000 0.000000
